G04 #@! TF.FileFunction,Legend,Top*
%FSLAX46Y46*%
G04 Gerber Fmt 4.6, Leading zero omitted, Abs format (unit mm)*
G04 Created by KiCad (PCBNEW 4.0.5) date Sunday, March 19, 2017 'PMt' 07:52:30 PM*
%MOMM*%
%LPD*%
G01*
G04 APERTURE LIST*
%ADD10C,0.100000*%
%ADD11C,0.120000*%
%ADD12C,0.150000*%
%ADD13R,1.600000X1.150000*%
%ADD14R,1.000000X1.200000*%
%ADD15R,1.543000X0.908000*%
%ADD16R,1.050000X1.960000*%
%ADD17R,1.900000X7.900000*%
%ADD18R,1.400000X6.900000*%
%ADD19R,1.900000X1.300000*%
%ADD20R,1.300000X1.900000*%
%ADD21R,2.100000X2.100000*%
%ADD22O,2.100000X2.100000*%
%ADD23R,1.600000X1.300000*%
%ADD24R,3.150000X1.400000*%
%ADD25C,1.920000*%
%ADD26C,3.100000*%
%ADD27C,4.464000*%
G04 APERTURE END LIST*
D10*
D11*
X144876000Y-125568000D02*
X144176000Y-125568000D01*
X144176000Y-124368000D02*
X144876000Y-124368000D01*
X144176000Y-122336000D02*
X144876000Y-122336000D01*
X144876000Y-123536000D02*
X144176000Y-123536000D01*
X145572000Y-129328000D02*
X145572000Y-128228000D01*
X145572000Y-128228000D02*
X143472000Y-128228000D01*
X145572000Y-129328000D02*
X143472000Y-129328000D01*
X145572000Y-127296000D02*
X145572000Y-126196000D01*
X145572000Y-126196000D02*
X143472000Y-126196000D01*
X145572000Y-127296000D02*
X143472000Y-127296000D01*
D12*
X134620000Y-119380000D02*
X134620000Y-124460000D01*
X134620000Y-124460000D02*
X130048000Y-124460000D01*
X130048000Y-124460000D02*
X130048000Y-119380000D01*
X130048000Y-119380000D02*
X134620000Y-119380000D01*
X133096000Y-119380000D02*
X133096000Y-119888000D01*
X133096000Y-119888000D02*
X131826000Y-119888000D01*
X131826000Y-119888000D02*
X131826000Y-119380000D01*
D11*
X142662000Y-117972000D02*
X142662000Y-119772000D01*
X145882000Y-119772000D02*
X145882000Y-117322000D01*
D12*
X138334000Y-153626000D02*
X126334000Y-153626000D01*
X126334000Y-162226000D02*
X126334000Y-153626000D01*
X138334000Y-162226000D02*
X126334000Y-162226000D01*
X138334000Y-162226000D02*
X138334000Y-153626000D01*
X132334000Y-101560000D02*
X134834000Y-99060000D01*
X129834000Y-96560000D02*
X129834000Y-96760000D01*
X131384000Y-96560000D02*
X129834000Y-96560000D01*
X129834000Y-98760000D02*
X129834000Y-98060000D01*
X134834000Y-96560000D02*
X131334000Y-96560000D01*
X129834000Y-98760000D02*
X129834000Y-101360000D01*
X129525421Y-96360000D02*
G75*
G03X129525421Y-96360000I-141421J0D01*
G01*
X134834000Y-98060000D02*
X134834000Y-100060000D01*
X134834000Y-101360000D02*
X134834000Y-101560000D01*
X134834000Y-101560000D02*
X129834000Y-101560000D01*
X129834000Y-101560000D02*
X129834000Y-101360000D01*
X134834000Y-96560000D02*
X134834000Y-96710000D01*
X144536233Y-107177767D02*
X148071767Y-107177767D01*
X146304000Y-101874466D02*
X146162579Y-102015887D01*
X147400016Y-102970482D02*
X146304000Y-101874466D01*
X144748365Y-103430101D02*
X145243340Y-102935126D01*
X149839534Y-105410000D02*
X147364660Y-102935126D01*
X144748365Y-103430101D02*
X142909887Y-105268579D01*
X146268644Y-101414847D02*
G75*
G03X146268644Y-101414847I-141421J0D01*
G01*
X148778874Y-106470660D02*
X147364660Y-107884874D01*
X146445421Y-108804113D02*
X146304000Y-108945534D01*
X146304000Y-108945534D02*
X142768466Y-105410000D01*
X142768466Y-105410000D02*
X142909887Y-105268579D01*
X149839534Y-105410000D02*
X149733468Y-105516066D01*
X150154000Y-119634000D02*
X152654000Y-122134000D01*
X155154000Y-117134000D02*
X154954000Y-117134000D01*
X155154000Y-118684000D02*
X155154000Y-117134000D01*
X152954000Y-117134000D02*
X153654000Y-117134000D01*
X155154000Y-122134000D02*
X155154000Y-118634000D01*
X152954000Y-117134000D02*
X150354000Y-117134000D01*
X155495421Y-116684000D02*
G75*
G03X155495421Y-116684000I-141421J0D01*
G01*
X153654000Y-122134000D02*
X151654000Y-122134000D01*
X150354000Y-122134000D02*
X150154000Y-122134000D01*
X150154000Y-122134000D02*
X150154000Y-117134000D01*
X150154000Y-117134000D02*
X150354000Y-117134000D01*
X155154000Y-122134000D02*
X155004000Y-122134000D01*
X145298233Y-132852233D02*
X145298233Y-136387767D01*
X150601534Y-134620000D02*
X150460113Y-134478579D01*
X149505518Y-135716016D02*
X150601534Y-134620000D01*
X149045899Y-133064365D02*
X149540874Y-133559340D01*
X147066000Y-138155534D02*
X149540874Y-135680660D01*
X149045899Y-133064365D02*
X147207421Y-131225887D01*
X151202574Y-134443223D02*
G75*
G03X151202574Y-134443223I-141421J0D01*
G01*
X146005340Y-137094874D02*
X144591126Y-135680660D01*
X143671887Y-134761421D02*
X143530466Y-134620000D01*
X143530466Y-134620000D02*
X147066000Y-131084466D01*
X147066000Y-131084466D02*
X147207421Y-131225887D01*
X147066000Y-138155534D02*
X146959934Y-138049468D01*
X119623767Y-132344233D02*
X116088233Y-132344233D01*
X117856000Y-137647534D02*
X117997421Y-137506113D01*
X116759984Y-136551518D02*
X117856000Y-137647534D01*
X119411635Y-136091899D02*
X118916660Y-136586874D01*
X114320466Y-134112000D02*
X116795340Y-136586874D01*
X119411635Y-136091899D02*
X121250113Y-134253421D01*
X118174198Y-138107153D02*
G75*
G03X118174198Y-138107153I-141421J0D01*
G01*
X115381126Y-133051340D02*
X116795340Y-131637126D01*
X117714579Y-130717887D02*
X117856000Y-130576466D01*
X117856000Y-130576466D02*
X121391534Y-134112000D01*
X121391534Y-134112000D02*
X121250113Y-134253421D01*
X114320466Y-134112000D02*
X114426532Y-134005934D01*
X114514000Y-119888000D02*
X112014000Y-117388000D01*
X109514000Y-122388000D02*
X109714000Y-122388000D01*
X109514000Y-120838000D02*
X109514000Y-122388000D01*
X111714000Y-122388000D02*
X111014000Y-122388000D01*
X109514000Y-117388000D02*
X109514000Y-120888000D01*
X111714000Y-122388000D02*
X114314000Y-122388000D01*
X109455421Y-122838000D02*
G75*
G03X109455421Y-122838000I-141421J0D01*
G01*
X111014000Y-117388000D02*
X113014000Y-117388000D01*
X114314000Y-117388000D02*
X114514000Y-117388000D01*
X114514000Y-117388000D02*
X114514000Y-122388000D01*
X114514000Y-122388000D02*
X114314000Y-122388000D01*
X109514000Y-117388000D02*
X109664000Y-117388000D01*
X119877767Y-106669767D02*
X119877767Y-103134233D01*
X114574466Y-104902000D02*
X114715887Y-105043421D01*
X115670482Y-103805984D02*
X114574466Y-104902000D01*
X116130101Y-106457635D02*
X115635126Y-105962660D01*
X118110000Y-101366466D02*
X115635126Y-103841340D01*
X116130101Y-106457635D02*
X117968579Y-108296113D01*
X114256268Y-105078777D02*
G75*
G03X114256268Y-105078777I-141421J0D01*
G01*
X119170660Y-102427126D02*
X120584874Y-103841340D01*
X121504113Y-104760579D02*
X121645534Y-104902000D01*
X121645534Y-104902000D02*
X118110000Y-108437534D01*
X118110000Y-108437534D02*
X117968579Y-108296113D01*
X118110000Y-101366466D02*
X118216066Y-101472532D01*
X132334000Y-142962000D02*
X134834000Y-140462000D01*
X129834000Y-137962000D02*
X129834000Y-138162000D01*
X131384000Y-137962000D02*
X129834000Y-137962000D01*
X129834000Y-140162000D02*
X129834000Y-139462000D01*
X134834000Y-137962000D02*
X131334000Y-137962000D01*
X129834000Y-140162000D02*
X129834000Y-142762000D01*
X129525421Y-137762000D02*
G75*
G03X129525421Y-137762000I-141421J0D01*
G01*
X134834000Y-139462000D02*
X134834000Y-141462000D01*
X134834000Y-142762000D02*
X134834000Y-142962000D01*
X134834000Y-142962000D02*
X129834000Y-142962000D01*
X129834000Y-142962000D02*
X129834000Y-142762000D01*
X134834000Y-137962000D02*
X134834000Y-138112000D01*
D11*
X127060000Y-126746000D02*
X127060000Y-116526000D01*
X127060000Y-116526000D02*
X124400000Y-116526000D01*
X124400000Y-116526000D02*
X124400000Y-126746000D01*
X124400000Y-126746000D02*
X127060000Y-126746000D01*
X127060000Y-128016000D02*
X127060000Y-129346000D01*
X127060000Y-129346000D02*
X125730000Y-129346000D01*
X139760000Y-126746000D02*
X139760000Y-116526000D01*
X139760000Y-116526000D02*
X137100000Y-116526000D01*
X137100000Y-116526000D02*
X137100000Y-126746000D01*
X137100000Y-126746000D02*
X139760000Y-126746000D01*
X139760000Y-128016000D02*
X139760000Y-129346000D01*
X139760000Y-129346000D02*
X138430000Y-129346000D01*
X120150000Y-120986000D02*
X121150000Y-120986000D01*
X121150000Y-122346000D02*
X120150000Y-122346000D01*
X120150000Y-123018000D02*
X121150000Y-123018000D01*
X121150000Y-124378000D02*
X120150000Y-124378000D01*
X121150000Y-120314000D02*
X120150000Y-120314000D01*
X120150000Y-118954000D02*
X121150000Y-118954000D01*
X129338000Y-109010000D02*
X129338000Y-108360000D01*
X129338000Y-108360000D02*
X135838000Y-108360000D01*
X135838000Y-108360000D02*
X135838000Y-109010000D01*
X129338000Y-114510000D02*
X129338000Y-115160000D01*
X129338000Y-115160000D02*
X135838000Y-115160000D01*
X135838000Y-115160000D02*
X135838000Y-114510000D01*
X129338000Y-113010000D02*
X129338000Y-110510000D01*
X135838000Y-113010000D02*
X135838000Y-110510000D01*
X134620000Y-88646000D02*
G75*
G03X134620000Y-88646000I-2286000J0D01*
G01*
D12*
X147407334Y-125325143D02*
X147359715Y-125372762D01*
X147216858Y-125420381D01*
X147121620Y-125420381D01*
X146978762Y-125372762D01*
X146883524Y-125277524D01*
X146835905Y-125182286D01*
X146788286Y-124991810D01*
X146788286Y-124848952D01*
X146835905Y-124658476D01*
X146883524Y-124563238D01*
X146978762Y-124468000D01*
X147121620Y-124420381D01*
X147216858Y-124420381D01*
X147359715Y-124468000D01*
X147407334Y-124515619D01*
X148359715Y-125420381D02*
X147788286Y-125420381D01*
X148074000Y-125420381D02*
X148074000Y-124420381D01*
X147978762Y-124563238D01*
X147883524Y-124658476D01*
X147788286Y-124706095D01*
X147407334Y-123293143D02*
X147359715Y-123340762D01*
X147216858Y-123388381D01*
X147121620Y-123388381D01*
X146978762Y-123340762D01*
X146883524Y-123245524D01*
X146835905Y-123150286D01*
X146788286Y-122959810D01*
X146788286Y-122816952D01*
X146835905Y-122626476D01*
X146883524Y-122531238D01*
X146978762Y-122436000D01*
X147121620Y-122388381D01*
X147216858Y-122388381D01*
X147359715Y-122436000D01*
X147407334Y-122483619D01*
X147788286Y-122483619D02*
X147835905Y-122436000D01*
X147931143Y-122388381D01*
X148169239Y-122388381D01*
X148264477Y-122436000D01*
X148312096Y-122483619D01*
X148359715Y-122578857D01*
X148359715Y-122674095D01*
X148312096Y-122816952D01*
X147740667Y-123388381D01*
X148359715Y-123388381D01*
X146835905Y-129230381D02*
X146835905Y-128230381D01*
X147074000Y-128230381D01*
X147216858Y-128278000D01*
X147312096Y-128373238D01*
X147359715Y-128468476D01*
X147407334Y-128658952D01*
X147407334Y-128801810D01*
X147359715Y-128992286D01*
X147312096Y-129087524D01*
X147216858Y-129182762D01*
X147074000Y-129230381D01*
X146835905Y-129230381D01*
X148359715Y-129230381D02*
X147788286Y-129230381D01*
X148074000Y-129230381D02*
X148074000Y-128230381D01*
X147978762Y-128373238D01*
X147883524Y-128468476D01*
X147788286Y-128516095D01*
X146835905Y-127198381D02*
X146835905Y-126198381D01*
X147074000Y-126198381D01*
X147216858Y-126246000D01*
X147312096Y-126341238D01*
X147359715Y-126436476D01*
X147407334Y-126626952D01*
X147407334Y-126769810D01*
X147359715Y-126960286D01*
X147312096Y-127055524D01*
X147216858Y-127150762D01*
X147074000Y-127198381D01*
X146835905Y-127198381D01*
X147788286Y-126293619D02*
X147835905Y-126246000D01*
X147931143Y-126198381D01*
X148169239Y-126198381D01*
X148264477Y-126246000D01*
X148312096Y-126293619D01*
X148359715Y-126388857D01*
X148359715Y-126484095D01*
X148312096Y-126626952D01*
X147740667Y-127198381D01*
X148359715Y-127198381D01*
X131357810Y-125928381D02*
X131357810Y-124928381D01*
X132405429Y-125833143D02*
X132357810Y-125880762D01*
X132214953Y-125928381D01*
X132119715Y-125928381D01*
X131976857Y-125880762D01*
X131881619Y-125785524D01*
X131834000Y-125690286D01*
X131786381Y-125499810D01*
X131786381Y-125356952D01*
X131834000Y-125166476D01*
X131881619Y-125071238D01*
X131976857Y-124976000D01*
X132119715Y-124928381D01*
X132214953Y-124928381D01*
X132357810Y-124976000D01*
X132405429Y-125023619D01*
X133357810Y-125928381D02*
X132786381Y-125928381D01*
X133072095Y-125928381D02*
X133072095Y-124928381D01*
X132976857Y-125071238D01*
X132881619Y-125166476D01*
X132786381Y-125214095D01*
X146343810Y-119324381D02*
X146343810Y-118324381D01*
X147391429Y-119229143D02*
X147343810Y-119276762D01*
X147200953Y-119324381D01*
X147105715Y-119324381D01*
X146962857Y-119276762D01*
X146867619Y-119181524D01*
X146820000Y-119086286D01*
X146772381Y-118895810D01*
X146772381Y-118752952D01*
X146820000Y-118562476D01*
X146867619Y-118467238D01*
X146962857Y-118372000D01*
X147105715Y-118324381D01*
X147200953Y-118324381D01*
X147343810Y-118372000D01*
X147391429Y-118419619D01*
X147772381Y-118419619D02*
X147820000Y-118372000D01*
X147915238Y-118324381D01*
X148153334Y-118324381D01*
X148248572Y-118372000D01*
X148296191Y-118419619D01*
X148343810Y-118514857D01*
X148343810Y-118610095D01*
X148296191Y-118752952D01*
X147724762Y-119324381D01*
X148343810Y-119324381D01*
X124991905Y-130798381D02*
X124991905Y-129798381D01*
X125372858Y-129798381D01*
X125468096Y-129846000D01*
X125515715Y-129893619D01*
X125563334Y-129988857D01*
X125563334Y-130131714D01*
X125515715Y-130226952D01*
X125468096Y-130274571D01*
X125372858Y-130322190D01*
X124991905Y-130322190D01*
X126515715Y-130798381D02*
X125944286Y-130798381D01*
X126230000Y-130798381D02*
X126230000Y-129798381D01*
X126134762Y-129941238D01*
X126039524Y-130036476D01*
X125944286Y-130084095D01*
X137691905Y-130798381D02*
X137691905Y-129798381D01*
X138072858Y-129798381D01*
X138168096Y-129846000D01*
X138215715Y-129893619D01*
X138263334Y-129988857D01*
X138263334Y-130131714D01*
X138215715Y-130226952D01*
X138168096Y-130274571D01*
X138072858Y-130322190D01*
X137691905Y-130322190D01*
X138644286Y-129893619D02*
X138691905Y-129846000D01*
X138787143Y-129798381D01*
X139025239Y-129798381D01*
X139120477Y-129846000D01*
X139168096Y-129893619D01*
X139215715Y-129988857D01*
X139215715Y-130084095D01*
X139168096Y-130226952D01*
X138596667Y-130798381D01*
X139215715Y-130798381D01*
X116673334Y-122118381D02*
X116340000Y-121642190D01*
X116101905Y-122118381D02*
X116101905Y-121118381D01*
X116482858Y-121118381D01*
X116578096Y-121166000D01*
X116625715Y-121213619D01*
X116673334Y-121308857D01*
X116673334Y-121451714D01*
X116625715Y-121546952D01*
X116578096Y-121594571D01*
X116482858Y-121642190D01*
X116101905Y-121642190D01*
X117625715Y-122118381D02*
X117054286Y-122118381D01*
X117340000Y-122118381D02*
X117340000Y-121118381D01*
X117244762Y-121261238D01*
X117149524Y-121356476D01*
X117054286Y-121404095D01*
X116673334Y-124150381D02*
X116340000Y-123674190D01*
X116101905Y-124150381D02*
X116101905Y-123150381D01*
X116482858Y-123150381D01*
X116578096Y-123198000D01*
X116625715Y-123245619D01*
X116673334Y-123340857D01*
X116673334Y-123483714D01*
X116625715Y-123578952D01*
X116578096Y-123626571D01*
X116482858Y-123674190D01*
X116101905Y-123674190D01*
X117054286Y-123245619D02*
X117101905Y-123198000D01*
X117197143Y-123150381D01*
X117435239Y-123150381D01*
X117530477Y-123198000D01*
X117578096Y-123245619D01*
X117625715Y-123340857D01*
X117625715Y-123436095D01*
X117578096Y-123578952D01*
X117006667Y-124150381D01*
X117625715Y-124150381D01*
X116673334Y-120086381D02*
X116340000Y-119610190D01*
X116101905Y-120086381D02*
X116101905Y-119086381D01*
X116482858Y-119086381D01*
X116578096Y-119134000D01*
X116625715Y-119181619D01*
X116673334Y-119276857D01*
X116673334Y-119419714D01*
X116625715Y-119514952D01*
X116578096Y-119562571D01*
X116482858Y-119610190D01*
X116101905Y-119610190D01*
X117006667Y-119086381D02*
X117625715Y-119086381D01*
X117292381Y-119467333D01*
X117435239Y-119467333D01*
X117530477Y-119514952D01*
X117578096Y-119562571D01*
X117625715Y-119657810D01*
X117625715Y-119895905D01*
X117578096Y-119991143D01*
X117530477Y-120038762D01*
X117435239Y-120086381D01*
X117149524Y-120086381D01*
X117054286Y-120038762D01*
X117006667Y-119991143D01*
X131254667Y-116664762D02*
X131397524Y-116712381D01*
X131635620Y-116712381D01*
X131730858Y-116664762D01*
X131778477Y-116617143D01*
X131826096Y-116521905D01*
X131826096Y-116426667D01*
X131778477Y-116331429D01*
X131730858Y-116283810D01*
X131635620Y-116236190D01*
X131445143Y-116188571D01*
X131349905Y-116140952D01*
X131302286Y-116093333D01*
X131254667Y-115998095D01*
X131254667Y-115902857D01*
X131302286Y-115807619D01*
X131349905Y-115760000D01*
X131445143Y-115712381D01*
X131683239Y-115712381D01*
X131826096Y-115760000D01*
X132159429Y-115712381D02*
X132397524Y-116712381D01*
X132588001Y-115998095D01*
X132778477Y-116712381D01*
X133016572Y-115712381D01*
X133921334Y-116712381D02*
X133349905Y-116712381D01*
X133635619Y-116712381D02*
X133635619Y-115712381D01*
X133540381Y-115855238D01*
X133445143Y-115950476D01*
X133349905Y-115998095D01*
X131595905Y-86050381D02*
X131595905Y-85050381D01*
X131976858Y-85050381D01*
X132072096Y-85098000D01*
X132119715Y-85145619D01*
X132167334Y-85240857D01*
X132167334Y-85383714D01*
X132119715Y-85478952D01*
X132072096Y-85526571D01*
X131976858Y-85574190D01*
X131595905Y-85574190D01*
X133072096Y-85050381D02*
X132595905Y-85050381D01*
X132548286Y-85526571D01*
X132595905Y-85478952D01*
X132691143Y-85431333D01*
X132929239Y-85431333D01*
X133024477Y-85478952D01*
X133072096Y-85526571D01*
X133119715Y-85621810D01*
X133119715Y-85859905D01*
X133072096Y-85955143D01*
X133024477Y-86002762D01*
X132929239Y-86050381D01*
X132691143Y-86050381D01*
X132595905Y-86002762D01*
X132548286Y-85955143D01*
%LPC*%
D13*
X145476000Y-124968000D03*
X143576000Y-124968000D03*
X143576000Y-122936000D03*
X145476000Y-122936000D03*
D14*
X145122000Y-128778000D03*
X143422000Y-128778000D03*
X145122000Y-126746000D03*
X143422000Y-126746000D03*
D15*
X135509000Y-120015000D03*
X135509000Y-121285000D03*
X135509000Y-122555000D03*
X135509000Y-123825000D03*
X129159000Y-123825000D03*
X129159000Y-122555000D03*
X129159000Y-121285000D03*
X129159000Y-120015000D03*
D16*
X145222000Y-117522000D03*
X144272000Y-117522000D03*
X143322000Y-117522000D03*
X143322000Y-120222000D03*
X145222000Y-120222000D03*
D17*
X135834000Y-157426000D03*
X128834000Y-157426000D03*
D18*
X131334000Y-156926000D03*
X133334000Y-156926000D03*
D19*
X129884000Y-97410000D03*
X129884000Y-100710000D03*
X134784000Y-100710000D03*
X134784000Y-97410000D03*
D10*
G36*
X144606944Y-102298730D02*
X145526183Y-101379491D01*
X146869686Y-102722994D01*
X145950447Y-103642233D01*
X144606944Y-102298730D01*
X144606944Y-102298730D01*
G37*
G36*
X142273491Y-104632183D02*
X143192730Y-103712944D01*
X144536233Y-105056447D01*
X143616994Y-105975686D01*
X142273491Y-104632183D01*
X142273491Y-104632183D01*
G37*
G36*
X145738314Y-108097006D02*
X146657553Y-107177767D01*
X148001056Y-108521270D01*
X147081817Y-109440509D01*
X145738314Y-108097006D01*
X145738314Y-108097006D01*
G37*
G36*
X148071767Y-105763553D02*
X148991006Y-104844314D01*
X150334509Y-106187817D01*
X149415270Y-107107056D01*
X148071767Y-105763553D01*
X148071767Y-105763553D01*
G37*
D20*
X154304000Y-117184000D03*
X151004000Y-117184000D03*
X151004000Y-122084000D03*
X154304000Y-122084000D03*
D10*
G36*
X150177270Y-132922944D02*
X151096509Y-133842183D01*
X149753006Y-135185686D01*
X148833767Y-134266447D01*
X150177270Y-132922944D01*
X150177270Y-132922944D01*
G37*
G36*
X147843817Y-130589491D02*
X148763056Y-131508730D01*
X147419553Y-132852233D01*
X146500314Y-131932994D01*
X147843817Y-130589491D01*
X147843817Y-130589491D01*
G37*
G36*
X144378994Y-134054314D02*
X145298233Y-134973553D01*
X143954730Y-136317056D01*
X143035491Y-135397817D01*
X144378994Y-134054314D01*
X144378994Y-134054314D01*
G37*
G36*
X146712447Y-136387767D02*
X147631686Y-137307006D01*
X146288183Y-138650509D01*
X145368944Y-137731270D01*
X146712447Y-136387767D01*
X146712447Y-136387767D01*
G37*
G36*
X119553056Y-137223270D02*
X118633817Y-138142509D01*
X117290314Y-136799006D01*
X118209553Y-135879767D01*
X119553056Y-137223270D01*
X119553056Y-137223270D01*
G37*
G36*
X121886509Y-134889817D02*
X120967270Y-135809056D01*
X119623767Y-134465553D01*
X120543006Y-133546314D01*
X121886509Y-134889817D01*
X121886509Y-134889817D01*
G37*
G36*
X118421686Y-131424994D02*
X117502447Y-132344233D01*
X116158944Y-131000730D01*
X117078183Y-130081491D01*
X118421686Y-131424994D01*
X118421686Y-131424994D01*
G37*
G36*
X116088233Y-133758447D02*
X115168994Y-134677686D01*
X113825491Y-133334183D01*
X114744730Y-132414944D01*
X116088233Y-133758447D01*
X116088233Y-133758447D01*
G37*
D20*
X110364000Y-122338000D03*
X113664000Y-122338000D03*
X113664000Y-117438000D03*
X110364000Y-117438000D03*
D10*
G36*
X114998730Y-106599056D02*
X114079491Y-105679817D01*
X115422994Y-104336314D01*
X116342233Y-105255553D01*
X114998730Y-106599056D01*
X114998730Y-106599056D01*
G37*
G36*
X117332183Y-108932509D02*
X116412944Y-108013270D01*
X117756447Y-106669767D01*
X118675686Y-107589006D01*
X117332183Y-108932509D01*
X117332183Y-108932509D01*
G37*
G36*
X120797006Y-105467686D02*
X119877767Y-104548447D01*
X121221270Y-103204944D01*
X122140509Y-104124183D01*
X120797006Y-105467686D01*
X120797006Y-105467686D01*
G37*
G36*
X118463553Y-103134233D02*
X117544314Y-102214994D01*
X118887817Y-100871491D01*
X119807056Y-101790730D01*
X118463553Y-103134233D01*
X118463553Y-103134233D01*
G37*
D19*
X129884000Y-138812000D03*
X129884000Y-142112000D03*
X134784000Y-142112000D03*
X134784000Y-138812000D03*
D21*
X125857000Y-128016000D03*
D22*
X125603000Y-125476000D03*
X125857000Y-122936000D03*
X125603000Y-120396000D03*
X125857000Y-117856000D03*
D21*
X138557000Y-128016000D03*
D22*
X138303000Y-125476000D03*
X138557000Y-122936000D03*
X138303000Y-120396000D03*
X138557000Y-117856000D03*
D23*
X121750000Y-121666000D03*
X119550000Y-121666000D03*
X121750000Y-123698000D03*
X119550000Y-123698000D03*
X119550000Y-119634000D03*
X121750000Y-119634000D03*
D24*
X135463000Y-113760000D03*
X129713000Y-113760000D03*
X129713000Y-109760000D03*
X135463000Y-109760000D03*
D25*
X133604000Y-133604000D03*
X131064000Y-133604000D03*
X131064000Y-135604000D03*
X133604000Y-135604000D03*
D26*
X138334000Y-138304000D03*
X126334000Y-138304000D03*
D27*
X132334000Y-88646000D03*
M02*
