G04 #@! TF.FileFunction,Profile,NP*
%FSLAX46Y46*%
G04 Gerber Fmt 4.6, Leading zero omitted, Abs format (unit mm)*
G04 Created by KiCad (PCBNEW 4.0.5) date Sunday, March 19, 2017 'PMt' 07:52:30 PM*
%MOMM*%
%LPD*%
G01*
G04 APERTURE LIST*
%ADD10C,0.100000*%
G04 APERTURE END LIST*
D10*
X126375100Y-144641593D02*
X126375100Y-144641593D01*
X126375100Y-162272704D02*
X126375100Y-144641593D01*
X138375100Y-162272704D02*
X126375100Y-162272704D01*
X138375100Y-144641593D02*
X138375100Y-162272704D01*
X145244100Y-140244541D02*
X138375100Y-144641593D01*
X148536142Y-145333811D02*
X145244100Y-140244541D01*
X149980635Y-146690180D02*
X148536142Y-145333811D01*
X158901775Y-149851452D02*
X149980635Y-146690180D01*
X161957542Y-146795685D02*
X158901775Y-149851452D01*
X158796270Y-137874545D02*
X161957542Y-146795685D01*
X157439901Y-136430052D02*
X158796270Y-137874545D01*
X152350631Y-133138154D02*
X157439901Y-136430052D01*
X155660370Y-125147739D02*
X152350631Y-133138154D01*
X161586749Y-126418674D02*
X155660370Y-125147739D01*
X163567259Y-126356360D02*
X161586749Y-126418674D01*
X172110814Y-122283517D02*
X163567259Y-126356360D01*
X172110814Y-117962013D02*
X172110814Y-122283517D01*
X163567259Y-113889170D02*
X172110814Y-117962013D01*
X161586749Y-113826857D02*
X163567259Y-113889170D01*
X155660370Y-115097792D02*
X161586749Y-113826857D01*
X152350631Y-107107377D02*
X155660370Y-115097792D01*
X157439901Y-103815479D02*
X152350631Y-107107377D01*
X158796270Y-102370985D02*
X157439901Y-103815479D01*
X161957542Y-93449846D02*
X158796270Y-102370985D01*
X158901775Y-90394079D02*
X161957542Y-93449846D01*
X149980635Y-93555351D02*
X158901775Y-90394079D01*
X148536142Y-94911719D02*
X149980635Y-93555351D01*
X145244244Y-100000989D02*
X148536142Y-94911719D01*
X137253829Y-96691251D02*
X145244244Y-100000989D01*
X138524764Y-90764872D02*
X137253829Y-96691251D01*
X138462450Y-88784361D02*
X138524764Y-90764872D01*
X134389607Y-80240806D02*
X138462450Y-88784361D01*
X130068104Y-80240806D02*
X134389607Y-80240806D01*
X125995260Y-88784361D02*
X130068104Y-80240806D01*
X125932947Y-90764872D02*
X125995260Y-88784361D01*
X127203882Y-96691251D02*
X125932947Y-90764872D01*
X119213467Y-100000989D02*
X127203882Y-96691251D01*
X115921569Y-94911719D02*
X119213467Y-100000989D01*
X114477075Y-93555351D02*
X115921569Y-94911719D01*
X105555936Y-90394079D02*
X114477075Y-93555351D01*
X102500169Y-93449846D02*
X105555936Y-90394079D01*
X105661441Y-102370985D02*
X102500169Y-93449846D01*
X107017809Y-103815479D02*
X105661441Y-102370985D01*
X112107080Y-107107377D02*
X107017809Y-103815479D01*
X108797341Y-115097792D02*
X112107080Y-107107377D01*
X102870962Y-113826857D02*
X108797341Y-115097792D01*
X100890451Y-113889170D02*
X102870962Y-113826857D01*
X92346896Y-117962013D02*
X100890451Y-113889170D01*
X92346896Y-122283517D02*
X92346896Y-117962013D01*
X100890451Y-126356360D02*
X92346896Y-122283517D01*
X102870962Y-126418674D02*
X100890451Y-126356360D01*
X108797341Y-125147739D02*
X102870962Y-126418674D01*
X112107080Y-133138154D02*
X108797341Y-125147739D01*
X107017809Y-136430052D02*
X112107080Y-133138154D01*
X105661441Y-137874545D02*
X107017809Y-136430052D01*
X102500169Y-146795685D02*
X105661441Y-137874545D01*
X105555936Y-149851452D02*
X102500169Y-146795685D01*
X114477075Y-146690180D02*
X105555936Y-149851452D01*
X115921569Y-145333811D02*
X114477075Y-146690180D01*
X119213100Y-140244541D02*
X115921569Y-145333811D01*
X126375100Y-144641593D02*
X119213100Y-140244541D01*
M02*
