M48
;DRILL file {KiCad 4.0.5} date Sunday, March 19, 2017 'PMt' 07:52:34 PM
;FORMAT={-:-/ absolute / inch / decimal}
FMAT,2
INCH,TZ
T1C0.016
T2C0.032
T3C0.039
T4C0.091
T5C0.120
%
G90
G05
M72
T1
X4.48Y-4.56
X4.58Y-5.13
X4.65Y-4.79
X4.65Y-4.87
X4.81Y-4.06
X5.01Y-5.66
X5.22Y-4.32
X5.32Y-5.41
X5.36Y-5.6
X5.42Y-3.97
X5.45Y-5.18
X5.49Y-4.02
X5.53Y-4.43
X5.57Y-4.94
X5.58Y-5.3
X5.64Y-5.36
X5.68Y-4.56
X5.69Y-3.99
X5.83Y-4.31
X5.84Y-4.98
X5.95Y-4.87
X5.96Y-4.98
X6.07Y-4.67
T2
X5.16Y-5.26
X5.16Y-5.3387
X5.26Y-5.26
X5.26Y-5.3387
T3
X4.945Y-4.74
X4.945Y-4.94
X4.955Y-4.64
X4.955Y-4.84
X4.955Y-5.04
X5.445Y-4.74
X5.445Y-4.94
X5.455Y-4.64
X5.455Y-4.84
X5.455Y-5.04
T4
X4.9738Y-5.445
X5.4462Y-5.445
T5
X5.21Y-3.49
T0
M30
