G04 #@! TF.FileFunction,Legend,Bot*
%FSLAX46Y46*%
G04 Gerber Fmt 4.6, Leading zero omitted, Abs format (unit mm)*
G04 Created by KiCad (PCBNEW 4.0.5) date Sunday, March 19, 2017 'PMt' 07:52:30 PM*
%MOMM*%
%LPD*%
G01*
G04 APERTURE LIST*
%ADD10C,0.100000*%
%ADD11C,0.120000*%
%ADD12C,0.150000*%
%ADD13R,2.100000X2.100000*%
%ADD14O,2.100000X2.100000*%
%ADD15R,1.400000X3.900000*%
%ADD16R,1.900000X3.800000*%
%ADD17C,1.920000*%
%ADD18C,3.100000*%
%ADD19C,4.464000*%
G04 APERTURE END LIST*
D10*
D11*
X134109000Y-99621000D02*
X135384000Y-99621000D01*
X135384000Y-99621000D02*
X135384000Y-98021000D01*
X135384000Y-98021000D02*
X136384000Y-98021000D01*
X136384000Y-98021000D02*
X136384000Y-102246000D01*
X128284000Y-102246000D02*
X128284000Y-98021000D01*
X128284000Y-98021000D02*
X129284000Y-98021000D01*
X129284000Y-98021000D02*
X129284000Y-99621000D01*
X129284000Y-99621000D02*
X130559000Y-99621000D01*
X132834000Y-105821000D02*
X132834000Y-104521000D01*
X132834000Y-104521000D02*
X131834000Y-104521000D01*
X131834000Y-104521000D02*
X131834000Y-105821000D01*
X136384000Y-99621000D02*
X135384000Y-99621000D01*
X128284000Y-99621000D02*
X129284000Y-99621000D01*
X134659000Y-105821000D02*
X130009000Y-105821000D01*
X134534000Y-100646000D02*
X134534000Y-104046000D01*
X134534000Y-104046000D02*
X133534000Y-104046000D01*
X133534000Y-104046000D02*
X133534000Y-100646000D01*
X133534000Y-100646000D02*
X134534000Y-100646000D01*
X130134000Y-100646000D02*
X130134000Y-104046000D01*
X130134000Y-104046000D02*
X131134000Y-104046000D01*
X131134000Y-104046000D02*
X131134000Y-100646000D01*
X131134000Y-100646000D02*
X130134000Y-100646000D01*
X134109000Y-99621000D02*
X134109000Y-96721000D01*
X138434000Y-139954000D02*
X138434000Y-148594000D01*
X138434000Y-131574000D02*
X138434000Y-136654000D01*
X126234000Y-139954000D02*
X126234000Y-148594000D01*
X126234000Y-131574000D02*
X126234000Y-136654000D01*
X126234000Y-148594000D02*
X138434000Y-148594000D01*
X138434000Y-131574000D02*
X126234000Y-131574000D01*
D12*
X133072095Y-96173381D02*
X133072095Y-95173381D01*
X132691142Y-95173381D01*
X132595904Y-95221000D01*
X132548285Y-95268619D01*
X132500666Y-95363857D01*
X132500666Y-95506714D01*
X132548285Y-95601952D01*
X132595904Y-95649571D01*
X132691142Y-95697190D01*
X133072095Y-95697190D01*
X132167333Y-95173381D02*
X131548285Y-95173381D01*
X131881619Y-95554333D01*
X131738761Y-95554333D01*
X131643523Y-95601952D01*
X131595904Y-95649571D01*
X131548285Y-95744810D01*
X131548285Y-95982905D01*
X131595904Y-96078143D01*
X131643523Y-96125762D01*
X131738761Y-96173381D01*
X132024476Y-96173381D01*
X132119714Y-96125762D01*
X132167333Y-96078143D01*
X133072095Y-145106381D02*
X133072095Y-144106381D01*
X132691142Y-144106381D01*
X132595904Y-144154000D01*
X132548285Y-144201619D01*
X132500666Y-144296857D01*
X132500666Y-144439714D01*
X132548285Y-144534952D01*
X132595904Y-144582571D01*
X132691142Y-144630190D01*
X133072095Y-144630190D01*
X131643523Y-144439714D02*
X131643523Y-145106381D01*
X131881619Y-144058762D02*
X132119714Y-144773048D01*
X131500666Y-144773048D01*
%LPC*%
D13*
X125857000Y-128016000D03*
D14*
X125603000Y-125476000D03*
X125857000Y-122936000D03*
X125603000Y-120396000D03*
X125857000Y-117856000D03*
D13*
X138557000Y-128016000D03*
D14*
X138303000Y-125476000D03*
X138557000Y-122936000D03*
X138303000Y-120396000D03*
X138557000Y-117856000D03*
D15*
X133334000Y-98471000D03*
X131334000Y-98471000D03*
D16*
X135684000Y-104221000D03*
X128984000Y-104221000D03*
D17*
X133604000Y-133604000D03*
X131064000Y-133604000D03*
X131064000Y-135604000D03*
X133604000Y-135604000D03*
D18*
X138334000Y-138304000D03*
X126334000Y-138304000D03*
D19*
X132334000Y-88646000D03*
M02*
