G04 #@! TF.FileFunction,Soldermask,Top*
%FSLAX46Y46*%
G04 Gerber Fmt 4.6, Leading zero omitted, Abs format (unit mm)*
G04 Created by KiCad (PCBNEW 4.0.5) date Sunday, March 19, 2017 'PMt' 07:52:30 PM*
%MOMM*%
%LPD*%
G01*
G04 APERTURE LIST*
%ADD10C,0.100000*%
%ADD11R,1.600000X1.150000*%
%ADD12R,1.000000X1.200000*%
%ADD13R,1.543000X0.908000*%
%ADD14R,1.050000X1.960000*%
%ADD15R,1.900000X7.900000*%
%ADD16R,1.400000X6.900000*%
%ADD17R,1.900000X1.300000*%
%ADD18R,1.300000X1.900000*%
%ADD19R,2.100000X2.100000*%
%ADD20O,2.100000X2.100000*%
%ADD21R,1.600000X1.300000*%
%ADD22R,3.150000X1.400000*%
%ADD23C,1.920000*%
%ADD24C,3.100000*%
%ADD25C,4.464000*%
G04 APERTURE END LIST*
D10*
D11*
X145476000Y-124968000D03*
X143576000Y-124968000D03*
X143576000Y-122936000D03*
X145476000Y-122936000D03*
D12*
X145122000Y-128778000D03*
X143422000Y-128778000D03*
X145122000Y-126746000D03*
X143422000Y-126746000D03*
D13*
X135509000Y-120015000D03*
X135509000Y-121285000D03*
X135509000Y-122555000D03*
X135509000Y-123825000D03*
X129159000Y-123825000D03*
X129159000Y-122555000D03*
X129159000Y-121285000D03*
X129159000Y-120015000D03*
D14*
X145222000Y-117522000D03*
X144272000Y-117522000D03*
X143322000Y-117522000D03*
X143322000Y-120222000D03*
X145222000Y-120222000D03*
D15*
X135834000Y-157426000D03*
X128834000Y-157426000D03*
D16*
X131334000Y-156926000D03*
X133334000Y-156926000D03*
D17*
X129884000Y-97410000D03*
X129884000Y-100710000D03*
X134784000Y-100710000D03*
X134784000Y-97410000D03*
D10*
G36*
X144606944Y-102298730D02*
X145526183Y-101379491D01*
X146869686Y-102722994D01*
X145950447Y-103642233D01*
X144606944Y-102298730D01*
X144606944Y-102298730D01*
G37*
G36*
X142273491Y-104632183D02*
X143192730Y-103712944D01*
X144536233Y-105056447D01*
X143616994Y-105975686D01*
X142273491Y-104632183D01*
X142273491Y-104632183D01*
G37*
G36*
X145738314Y-108097006D02*
X146657553Y-107177767D01*
X148001056Y-108521270D01*
X147081817Y-109440509D01*
X145738314Y-108097006D01*
X145738314Y-108097006D01*
G37*
G36*
X148071767Y-105763553D02*
X148991006Y-104844314D01*
X150334509Y-106187817D01*
X149415270Y-107107056D01*
X148071767Y-105763553D01*
X148071767Y-105763553D01*
G37*
D18*
X154304000Y-117184000D03*
X151004000Y-117184000D03*
X151004000Y-122084000D03*
X154304000Y-122084000D03*
D10*
G36*
X150177270Y-132922944D02*
X151096509Y-133842183D01*
X149753006Y-135185686D01*
X148833767Y-134266447D01*
X150177270Y-132922944D01*
X150177270Y-132922944D01*
G37*
G36*
X147843817Y-130589491D02*
X148763056Y-131508730D01*
X147419553Y-132852233D01*
X146500314Y-131932994D01*
X147843817Y-130589491D01*
X147843817Y-130589491D01*
G37*
G36*
X144378994Y-134054314D02*
X145298233Y-134973553D01*
X143954730Y-136317056D01*
X143035491Y-135397817D01*
X144378994Y-134054314D01*
X144378994Y-134054314D01*
G37*
G36*
X146712447Y-136387767D02*
X147631686Y-137307006D01*
X146288183Y-138650509D01*
X145368944Y-137731270D01*
X146712447Y-136387767D01*
X146712447Y-136387767D01*
G37*
G36*
X119553056Y-137223270D02*
X118633817Y-138142509D01*
X117290314Y-136799006D01*
X118209553Y-135879767D01*
X119553056Y-137223270D01*
X119553056Y-137223270D01*
G37*
G36*
X121886509Y-134889817D02*
X120967270Y-135809056D01*
X119623767Y-134465553D01*
X120543006Y-133546314D01*
X121886509Y-134889817D01*
X121886509Y-134889817D01*
G37*
G36*
X118421686Y-131424994D02*
X117502447Y-132344233D01*
X116158944Y-131000730D01*
X117078183Y-130081491D01*
X118421686Y-131424994D01*
X118421686Y-131424994D01*
G37*
G36*
X116088233Y-133758447D02*
X115168994Y-134677686D01*
X113825491Y-133334183D01*
X114744730Y-132414944D01*
X116088233Y-133758447D01*
X116088233Y-133758447D01*
G37*
D18*
X110364000Y-122338000D03*
X113664000Y-122338000D03*
X113664000Y-117438000D03*
X110364000Y-117438000D03*
D10*
G36*
X114998730Y-106599056D02*
X114079491Y-105679817D01*
X115422994Y-104336314D01*
X116342233Y-105255553D01*
X114998730Y-106599056D01*
X114998730Y-106599056D01*
G37*
G36*
X117332183Y-108932509D02*
X116412944Y-108013270D01*
X117756447Y-106669767D01*
X118675686Y-107589006D01*
X117332183Y-108932509D01*
X117332183Y-108932509D01*
G37*
G36*
X120797006Y-105467686D02*
X119877767Y-104548447D01*
X121221270Y-103204944D01*
X122140509Y-104124183D01*
X120797006Y-105467686D01*
X120797006Y-105467686D01*
G37*
G36*
X118463553Y-103134233D02*
X117544314Y-102214994D01*
X118887817Y-100871491D01*
X119807056Y-101790730D01*
X118463553Y-103134233D01*
X118463553Y-103134233D01*
G37*
D17*
X129884000Y-138812000D03*
X129884000Y-142112000D03*
X134784000Y-142112000D03*
X134784000Y-138812000D03*
D19*
X125857000Y-128016000D03*
D20*
X125603000Y-125476000D03*
X125857000Y-122936000D03*
X125603000Y-120396000D03*
X125857000Y-117856000D03*
D19*
X138557000Y-128016000D03*
D20*
X138303000Y-125476000D03*
X138557000Y-122936000D03*
X138303000Y-120396000D03*
X138557000Y-117856000D03*
D21*
X121750000Y-121666000D03*
X119550000Y-121666000D03*
X121750000Y-123698000D03*
X119550000Y-123698000D03*
X119550000Y-119634000D03*
X121750000Y-119634000D03*
D22*
X135463000Y-113760000D03*
X129713000Y-113760000D03*
X129713000Y-109760000D03*
X135463000Y-109760000D03*
D23*
X133604000Y-133604000D03*
X131064000Y-133604000D03*
X131064000Y-135604000D03*
X133604000Y-135604000D03*
D24*
X138334000Y-138304000D03*
X126334000Y-138304000D03*
D25*
X132334000Y-88646000D03*
M02*
